<mxfile host="Electron" agent="Mozilla/5.0 (Windows NT 10.0; Win64; x64) AppleWebKit/537.36 (KHTML, like Gecko) draw.io/24.7.17 Chrome/128.0.6613.36 Electron/32.0.1 Safari/537.36" version="24.7.17">
  <diagram name="Page-1" id="KHDGIGhGzWFDvoNnHqS8">
    <mxGraphModel dx="600" dy="382" grid="1" gridSize="10" guides="1" tooltips="1" connect="1" arrows="1" fold="1" page="1" pageScale="1" pageWidth="850" pageHeight="1100" math="0" shadow="0">
      <root>
        <mxCell id="0" />
        <mxCell id="1" parent="0" />
        <mxCell id="Y5e2X1rM77SaJahhi9rT-21" value="User" style="swimlane;horizontal=0;whiteSpace=wrap;html=1;movable=1;resizable=1;rotatable=1;deletable=1;editable=1;locked=0;connectable=1;" parent="1" vertex="1">
          <mxGeometry x="20" y="20" width="190" height="100" as="geometry">
            <mxRectangle x="20" y="20" width="40" height="60" as="alternateBounds" />
          </mxGeometry>
        </mxCell>
        <mxCell id="Y5e2X1rM77SaJahhi9rT-28" value="App Server" style="swimlane;horizontal=0;whiteSpace=wrap;html=1;movable=1;resizable=1;rotatable=1;deletable=1;editable=1;locked=0;connectable=1;" parent="1" vertex="1">
          <mxGeometry x="20" y="220" width="510" height="100" as="geometry">
            <mxRectangle x="30" y="80" width="40" height="60" as="alternateBounds" />
          </mxGeometry>
        </mxCell>
        <mxCell id="Y5e2X1rM77SaJahhi9rT-29" value="DB Server" style="swimlane;horizontal=0;whiteSpace=wrap;html=1;movable=1;resizable=1;rotatable=1;deletable=1;editable=1;locked=0;connectable=1;" parent="1" vertex="1">
          <mxGeometry x="20" y="320" width="510" height="100" as="geometry">
            <mxRectangle x="30" y="80" width="40" height="60" as="alternateBounds" />
          </mxGeometry>
        </mxCell>
        <mxCell id="Y5e2X1rM77SaJahhi9rT-41" style="edgeStyle=orthogonalEdgeStyle;rounded=1;orthogonalLoop=1;jettySize=auto;html=1;exitX=1;exitY=0.5;exitDx=0;exitDy=0;entryX=0.5;entryY=1;entryDx=0;entryDy=0;endArrow=open;endFill=0;curved=0;" parent="Y5e2X1rM77SaJahhi9rT-29" source="Y5e2X1rM77SaJahhi9rT-12" target="Y5e2X1rM77SaJahhi9rT-31" edge="1">
          <mxGeometry relative="1" as="geometry" />
        </mxCell>
        <mxCell id="Y5e2X1rM77SaJahhi9rT-54" value="&lt;font style=&quot;font-size: 9px;&quot;&gt;[not followed]&lt;/font&gt;" style="edgeLabel;html=1;align=center;verticalAlign=middle;resizable=0;points=[];" parent="Y5e2X1rM77SaJahhi9rT-41" vertex="1" connectable="0">
          <mxGeometry x="-0.5649" y="-1" relative="1" as="geometry">
            <mxPoint x="9" y="-11" as="offset" />
          </mxGeometry>
        </mxCell>
        <mxCell id="Y5e2X1rM77SaJahhi9rT-42" style="edgeStyle=orthogonalEdgeStyle;rounded=1;orthogonalLoop=1;jettySize=auto;html=1;exitX=0.5;exitY=1;exitDx=0;exitDy=0;entryX=0.5;entryY=1;entryDx=0;entryDy=0;endArrow=open;endFill=0;curved=0;" parent="Y5e2X1rM77SaJahhi9rT-29" source="Y5e2X1rM77SaJahhi9rT-12" target="Y5e2X1rM77SaJahhi9rT-30" edge="1">
          <mxGeometry relative="1" as="geometry">
            <mxPoint x="430" y="30" as="targetPoint" />
            <Array as="points">
              <mxPoint x="185" y="80" />
              <mxPoint x="425" y="80" />
            </Array>
          </mxGeometry>
        </mxCell>
        <mxCell id="Y5e2X1rM77SaJahhi9rT-55" value="&lt;font style=&quot;font-size: 9px;&quot;&gt;[followed]&lt;/font&gt;" style="edgeLabel;html=1;align=center;verticalAlign=middle;resizable=0;points=[];" parent="Y5e2X1rM77SaJahhi9rT-42" vertex="1" connectable="0">
          <mxGeometry x="-0.8243" relative="1" as="geometry">
            <mxPoint x="12" y="-10" as="offset" />
          </mxGeometry>
        </mxCell>
        <mxCell id="Y5e2X1rM77SaJahhi9rT-12" value="" style="rhombus;" parent="Y5e2X1rM77SaJahhi9rT-29" vertex="1">
          <mxGeometry x="170" y="35" width="30" height="30" as="geometry" />
        </mxCell>
        <mxCell id="Y5e2X1rM77SaJahhi9rT-40" style="edgeStyle=orthogonalEdgeStyle;rounded=1;orthogonalLoop=1;jettySize=auto;html=1;exitX=0.5;exitY=1;exitDx=0;exitDy=0;entryX=0;entryY=0.5;entryDx=0;entryDy=0;endArrow=open;endFill=0;curved=0;" parent="Y5e2X1rM77SaJahhi9rT-29" source="Y5e2X1rM77SaJahhi9rT-32" target="Y5e2X1rM77SaJahhi9rT-12" edge="1">
          <mxGeometry relative="1" as="geometry" />
        </mxCell>
        <mxCell id="Y5e2X1rM77SaJahhi9rT-32" value="Check follow status" style="html=1;align=center;verticalAlign=middle;rounded=1;absoluteArcSize=1;arcSize=19;dashed=0;whiteSpace=wrap;" parent="Y5e2X1rM77SaJahhi9rT-29" vertex="1">
          <mxGeometry x="60" y="-20" width="90" height="40" as="geometry" />
        </mxCell>
        <mxCell id="Y5e2X1rM77SaJahhi9rT-31" value="Update to&lt;div&gt;follow&lt;/div&gt;" style="html=1;align=center;verticalAlign=middle;rounded=1;absoluteArcSize=1;arcSize=19;dashed=0;whiteSpace=wrap;" parent="Y5e2X1rM77SaJahhi9rT-29" vertex="1">
          <mxGeometry x="220" y="-20" width="90" height="40" as="geometry" />
        </mxCell>
        <mxCell id="Y5e2X1rM77SaJahhi9rT-30" value="Update to&lt;div&gt;unfollow&lt;/div&gt;" style="html=1;align=center;verticalAlign=middle;rounded=1;absoluteArcSize=1;arcSize=19;dashed=0;whiteSpace=wrap;" parent="Y5e2X1rM77SaJahhi9rT-29" vertex="1">
          <mxGeometry x="380" y="-20" width="90" height="40" as="geometry" />
        </mxCell>
        <mxCell id="Y5e2X1rM77SaJahhi9rT-25" value="App UI" style="swimlane;horizontal=0;whiteSpace=wrap;html=1;movable=1;resizable=1;rotatable=1;deletable=1;editable=1;locked=0;connectable=1;" parent="1" vertex="1">
          <mxGeometry x="20" y="120" width="510" height="100" as="geometry">
            <mxRectangle x="30" y="80" width="40" height="60" as="alternateBounds" />
          </mxGeometry>
        </mxCell>
        <mxCell id="Y5e2X1rM77SaJahhi9rT-22" value="Request to&lt;div&gt;follow&lt;/div&gt;" style="html=1;align=center;verticalAlign=middle;rounded=1;absoluteArcSize=1;arcSize=19;dashed=0;whiteSpace=wrap;" parent="Y5e2X1rM77SaJahhi9rT-25" vertex="1">
          <mxGeometry x="60" y="80" width="90" height="40" as="geometry" />
        </mxCell>
        <mxCell id="Y5e2X1rM77SaJahhi9rT-47" style="edgeStyle=orthogonalEdgeStyle;rounded=1;orthogonalLoop=1;jettySize=auto;html=1;exitX=0.5;exitY=0;exitDx=0;exitDy=0;entryX=0;entryY=0.5;entryDx=0;entryDy=0;endArrow=open;endFill=0;curved=0;" parent="Y5e2X1rM77SaJahhi9rT-25" source="Y5e2X1rM77SaJahhi9rT-33" target="Y5e2X1rM77SaJahhi9rT-45" edge="1">
          <mxGeometry relative="1" as="geometry">
            <Array as="points">
              <mxPoint x="265" y="8" />
            </Array>
          </mxGeometry>
        </mxCell>
        <mxCell id="Y5e2X1rM77SaJahhi9rT-33" value="&lt;div&gt;Display status&lt;/div&gt;&lt;div&gt;followed&lt;/div&gt;" style="html=1;align=center;verticalAlign=middle;rounded=1;absoluteArcSize=1;arcSize=19;dashed=0;whiteSpace=wrap;" parent="Y5e2X1rM77SaJahhi9rT-25" vertex="1">
          <mxGeometry x="215" y="30" width="100" height="40" as="geometry" />
        </mxCell>
        <mxCell id="Y5e2X1rM77SaJahhi9rT-48" style="edgeStyle=orthogonalEdgeStyle;rounded=1;orthogonalLoop=1;jettySize=auto;html=1;exitX=0.5;exitY=0;exitDx=0;exitDy=0;entryX=1;entryY=0.5;entryDx=0;entryDy=0;endArrow=open;endFill=0;curved=0;" parent="Y5e2X1rM77SaJahhi9rT-25" source="Y5e2X1rM77SaJahhi9rT-34" target="Y5e2X1rM77SaJahhi9rT-45" edge="1">
          <mxGeometry relative="1" as="geometry">
            <Array as="points">
              <mxPoint x="425" y="8" />
            </Array>
          </mxGeometry>
        </mxCell>
        <mxCell id="Y5e2X1rM77SaJahhi9rT-34" value="&lt;div&gt;Display status&lt;/div&gt;&lt;div&gt;unfollowed&lt;/div&gt;" style="html=1;align=center;verticalAlign=middle;rounded=1;absoluteArcSize=1;arcSize=19;dashed=0;whiteSpace=wrap;" parent="Y5e2X1rM77SaJahhi9rT-25" vertex="1">
          <mxGeometry x="380" y="30" width="90" height="40" as="geometry" />
        </mxCell>
        <mxCell id="Y5e2X1rM77SaJahhi9rT-45" value="" style="rhombus;" parent="Y5e2X1rM77SaJahhi9rT-25" vertex="1">
          <mxGeometry x="330" y="-7" width="30" height="30" as="geometry" />
        </mxCell>
        <mxCell id="Y5e2X1rM77SaJahhi9rT-51" value="Respond with&lt;div&gt;unfollow&lt;/div&gt;" style="html=1;align=center;verticalAlign=middle;rounded=1;absoluteArcSize=1;arcSize=19;dashed=0;whiteSpace=wrap;" parent="Y5e2X1rM77SaJahhi9rT-25" vertex="1">
          <mxGeometry x="380" y="90" width="90" height="40" as="geometry" />
        </mxCell>
        <mxCell id="Y5e2X1rM77SaJahhi9rT-44" style="edgeStyle=orthogonalEdgeStyle;rounded=1;orthogonalLoop=1;jettySize=auto;html=1;exitX=0.5;exitY=0;exitDx=0;exitDy=0;entryX=0.5;entryY=1;entryDx=0;entryDy=0;endArrow=open;endFill=0;curved=0;" parent="Y5e2X1rM77SaJahhi9rT-25" source="Y5e2X1rM77SaJahhi9rT-51" target="Y5e2X1rM77SaJahhi9rT-34" edge="1">
          <mxGeometry relative="1" as="geometry">
            <mxPoint x="424.9310344827586" y="90" as="targetPoint" />
          </mxGeometry>
        </mxCell>
        <mxCell id="Y5e2X1rM77SaJahhi9rT-50" value="Respond with&lt;div&gt;follow&lt;/div&gt;" style="html=1;align=center;verticalAlign=middle;rounded=1;absoluteArcSize=1;arcSize=19;dashed=0;whiteSpace=wrap;" parent="Y5e2X1rM77SaJahhi9rT-25" vertex="1">
          <mxGeometry x="220" y="90" width="90" height="40" as="geometry" />
        </mxCell>
        <mxCell id="Y5e2X1rM77SaJahhi9rT-43" style="edgeStyle=orthogonalEdgeStyle;rounded=1;orthogonalLoop=1;jettySize=auto;html=1;exitX=0.5;exitY=0;exitDx=0;exitDy=0;entryX=0.5;entryY=1;entryDx=0;entryDy=0;endArrow=open;endFill=0;curved=0;" parent="Y5e2X1rM77SaJahhi9rT-25" source="Y5e2X1rM77SaJahhi9rT-50" target="Y5e2X1rM77SaJahhi9rT-33" edge="1">
          <mxGeometry relative="1" as="geometry" />
        </mxCell>
        <mxCell id="Y5e2X1rM77SaJahhi9rT-8" value="User clicks&amp;nbsp;&lt;div&gt;follow button&lt;/div&gt;" style="html=1;align=center;verticalAlign=middle;rounded=1;absoluteArcSize=1;arcSize=19;dashed=0;whiteSpace=wrap;" parent="Y5e2X1rM77SaJahhi9rT-25" vertex="1">
          <mxGeometry x="60" y="-20" width="90" height="40" as="geometry" />
        </mxCell>
        <mxCell id="Y5e2X1rM77SaJahhi9rT-38" style="edgeStyle=orthogonalEdgeStyle;rounded=1;orthogonalLoop=1;jettySize=auto;html=1;exitX=0.5;exitY=1;exitDx=0;exitDy=0;entryX=0.5;entryY=0;entryDx=0;entryDy=0;endArrow=open;endFill=0;jumpStyle=none;curved=0;" parent="Y5e2X1rM77SaJahhi9rT-25" source="Y5e2X1rM77SaJahhi9rT-8" target="Y5e2X1rM77SaJahhi9rT-22" edge="1">
          <mxGeometry relative="1" as="geometry" />
        </mxCell>
        <mxCell id="NYMXVXmjNozz2pznRUr9-1" style="edgeStyle=orthogonalEdgeStyle;rounded=1;orthogonalLoop=1;jettySize=auto;html=1;exitX=0;exitY=0.5;exitDx=0;exitDy=0;entryX=0.5;entryY=0;entryDx=0;entryDy=0;curved=0;" parent="1" source="Y5e2X1rM77SaJahhi9rT-1" target="Y5e2X1rM77SaJahhi9rT-8" edge="1">
          <mxGeometry relative="1" as="geometry" />
        </mxCell>
        <mxCell id="Y5e2X1rM77SaJahhi9rT-1" value="" style="ellipse;fillColor=strokeColor;html=1;" parent="1" vertex="1">
          <mxGeometry x="250" y="55" width="30" height="30" as="geometry" />
        </mxCell>
        <mxCell id="Y5e2X1rM77SaJahhi9rT-2" value="" style="ellipse;html=1;shape=endState;fillColor=strokeColor;" parent="1" vertex="1">
          <mxGeometry x="350" y="55" width="30" height="30" as="geometry" />
        </mxCell>
        <mxCell id="Y5e2X1rM77SaJahhi9rT-39" style="edgeStyle=orthogonalEdgeStyle;rounded=1;orthogonalLoop=1;jettySize=auto;html=1;exitX=0.5;exitY=1;exitDx=0;exitDy=0;entryX=0.5;entryY=0;entryDx=0;entryDy=0;endArrow=open;endFill=0;curved=0;" parent="1" source="Y5e2X1rM77SaJahhi9rT-22" target="Y5e2X1rM77SaJahhi9rT-32" edge="1">
          <mxGeometry relative="1" as="geometry" />
        </mxCell>
        <mxCell id="Y5e2X1rM77SaJahhi9rT-49" style="edgeStyle=orthogonalEdgeStyle;rounded=1;orthogonalLoop=1;jettySize=auto;html=1;exitX=0.5;exitY=0;exitDx=0;exitDy=0;entryX=0.5;entryY=1;entryDx=0;entryDy=0;endArrow=open;endFill=0;curved=0;" parent="1" source="Y5e2X1rM77SaJahhi9rT-45" target="Y5e2X1rM77SaJahhi9rT-2" edge="1">
          <mxGeometry relative="1" as="geometry" />
        </mxCell>
        <mxCell id="Y5e2X1rM77SaJahhi9rT-52" value="" style="edgeStyle=orthogonalEdgeStyle;rounded=1;orthogonalLoop=1;jettySize=auto;html=1;exitX=0.5;exitY=0;exitDx=0;exitDy=0;entryX=0.5;entryY=1;entryDx=0;entryDy=0;endArrow=open;endFill=0;curved=0;" parent="1" source="Y5e2X1rM77SaJahhi9rT-30" target="Y5e2X1rM77SaJahhi9rT-51" edge="1">
          <mxGeometry relative="1" as="geometry">
            <mxPoint x="445" y="190" as="targetPoint" />
            <mxPoint x="445" y="300" as="sourcePoint" />
          </mxGeometry>
        </mxCell>
        <mxCell id="Y5e2X1rM77SaJahhi9rT-53" value="" style="edgeStyle=orthogonalEdgeStyle;rounded=1;orthogonalLoop=1;jettySize=auto;html=1;exitX=0.5;exitY=0;exitDx=0;exitDy=0;entryX=0.5;entryY=1;entryDx=0;entryDy=0;endArrow=open;endFill=0;curved=0;" parent="1" source="Y5e2X1rM77SaJahhi9rT-31" target="Y5e2X1rM77SaJahhi9rT-50" edge="1">
          <mxGeometry relative="1" as="geometry">
            <mxPoint x="285" y="300" as="sourcePoint" />
            <mxPoint x="285" y="190" as="targetPoint" />
          </mxGeometry>
        </mxCell>
      </root>
    </mxGraphModel>
  </diagram>
</mxfile>
